<svg width="80" height="43" viewBox="0 0 80 43" fill="none" xmlns="http://www.w3.org/2000/svg">
<path d="M78.7404 14.5626C79.2115 14.5626 79.5392 14.624 79.7235 14.7469C79.9078 14.8698 80 15.0746 80 15.3613C80 15.8529 79.7337 17.6041 79.2012 20.6149C78.7301 23.5029 78.4536 25.2131 78.3717 25.7456C77.6139 31.0095 76.5693 35.1775 75.238 38.2498C73.9067 41.322 72.135 42.8582 69.923 42.8582C68.8784 42.8582 68.0284 42.5305 67.373 41.875C66.7176 41.2401 66.3898 40.4004 66.3898 39.3558C66.3898 38.3931 66.6049 37.41 67.035 36.4064C67.4856 35.4028 68.3049 34.2456 69.4928 32.9347C70.7013 31.6444 72.4013 30.1595 74.5928 28.4799L74.685 27.7733C74.8284 27.0155 74.9922 25.93 75.1765 24.5167C74.7669 25.9914 74.1934 27.1179 73.4561 27.8962C72.7187 28.654 71.9404 29.033 71.1211 29.033C70.1995 29.033 69.4416 28.6131 68.8477 27.7733C68.2742 26.9131 67.9874 25.848 67.9874 24.5782C67.9874 23.042 68.0898 21.639 68.2947 20.3692C68.4995 19.0788 68.8374 17.7168 69.3085 16.283C69.5133 15.6686 69.8001 15.2282 70.1687 14.962C70.5374 14.6957 71.1211 14.5626 71.9199 14.5626C72.3705 14.5626 72.6778 14.6342 72.8416 14.7776C73.026 14.921 73.1181 15.1361 73.1181 15.4228C73.1181 15.5867 73.0055 16.1397 72.7802 17.0818C72.5754 17.8397 72.4115 18.5258 72.2886 19.1402C72.1248 19.98 71.9814 20.789 71.8585 21.5673C71.7356 22.3252 71.6742 22.9499 71.6742 23.4414C71.6742 24.2197 71.8892 24.6089 72.3193 24.6089C72.6266 24.6089 73.0055 24.3017 73.4561 23.6872C73.9272 23.0728 74.4187 22.1408 74.9308 20.8914C75.4633 19.642 75.9753 18.1059 76.4669 16.283C76.6308 15.6686 76.8765 15.2282 77.2042 14.962C77.5524 14.6957 78.0645 14.5626 78.7404 14.5626ZM70.2609 39.8781C70.773 39.8781 71.3464 39.2841 71.9814 38.0962C72.6163 36.9082 73.2513 34.9317 73.8862 32.1667C72.3091 33.498 71.1621 34.7064 70.4452 35.792C69.7489 36.898 69.4007 37.8606 69.4007 38.6799C69.4007 39.0281 69.4621 39.3148 69.585 39.5401C69.7284 39.7654 69.9537 39.8781 70.2609 39.8781Z" fill="#08C265"/>
<path d="M69.6105 22.0282C69.8767 22.0282 70.0816 22.1511 70.2249 22.3969C70.3888 22.6426 70.4707 22.9806 70.4707 23.4107C70.4707 24.23 70.2761 24.8649 69.887 25.3155C69.0063 26.4011 68.0436 27.292 66.999 27.9884C65.975 28.6848 64.8075 29.033 63.4967 29.033C61.6943 29.033 60.3527 28.2137 59.472 26.5751C58.6117 24.9366 58.1816 22.8167 58.1816 20.2155C58.1816 17.7168 58.4991 14.8698 59.134 11.6746C59.7894 8.47947 60.7419 5.73491 61.9912 3.44094C63.2611 1.14698 64.7665 0 66.5075 0C67.4906 0 68.2587 0.46084 68.8117 1.38252C69.3852 2.28372 69.6719 3.58432 69.6719 5.28431C69.6719 7.72164 68.996 10.5481 67.6442 13.7638C66.2924 16.9794 64.4593 20.1643 62.1449 23.3185C62.2882 24.1583 62.5238 24.7625 62.8515 25.1312C63.1792 25.4794 63.6093 25.6535 64.1418 25.6535C64.9816 25.6535 65.7189 25.4179 66.3539 24.9468C66.9888 24.4553 67.7978 23.6258 68.781 22.4583C69.0267 22.1716 69.3032 22.0282 69.6105 22.0282ZM65.8316 3.04155C65.3605 3.04155 64.828 3.89154 64.234 5.59153C63.64 7.29152 63.1177 9.40115 62.6671 11.9204C62.2165 14.4397 61.9708 16.8565 61.9298 19.171C63.384 16.7746 64.5412 14.3782 65.4015 11.9819C66.2617 9.565 66.6918 7.36321 66.6918 5.37648C66.6918 3.81986 66.4051 3.04155 65.8316 3.04155Z" fill="#08C265"/>
<path d="M59.5829 22.0282C59.8491 22.0282 60.0539 22.1511 60.1973 22.3969C60.3612 22.6426 60.4431 22.9806 60.4431 23.4107C60.4431 24.23 60.2485 24.8649 59.8594 25.3155C58.9377 26.442 58.0058 27.3432 57.0636 28.0191C56.1214 28.695 55.0052 29.033 53.7148 29.033C52.1377 29.033 50.8679 28.5824 49.9052 27.6812C48.9426 26.78 48.4612 25.5818 48.4612 24.0866C48.4612 23.2878 48.8709 22.7143 49.6901 22.3661C50.5913 21.977 51.2365 21.5673 51.6257 21.1372C52.0148 20.6866 52.2094 20.1439 52.2094 19.5089C52.2094 19.1403 52.1275 18.8637 51.9636 18.6794C51.8203 18.4951 51.6359 18.4029 51.4106 18.4029C50.8576 18.4029 50.2432 18.8023 49.5673 19.6011C48.9118 20.3999 48.2974 21.4342 47.7239 22.7041C47.1504 23.9535 46.6998 25.2438 46.3721 26.5751C46.1468 27.5378 45.8805 28.1932 45.5733 28.5414C45.2866 28.8691 44.8257 29.033 44.1908 29.033C43.5558 29.033 43.0848 28.8077 42.7775 28.3571C42.4908 27.886 42.2962 27.1691 42.1938 26.2065C42.0914 25.2438 42.0402 23.8306 42.0402 21.9667C42.0402 18.8125 42.3577 15.5252 42.9926 12.1047C43.648 8.68429 44.6004 5.81683 45.8498 3.50239C47.1197 1.16746 48.6353 0 50.3968 0C51.3389 0 52.0968 0.409637 52.6702 1.22891C53.2642 2.0277 53.5612 3.07227 53.5612 4.36263C53.5612 6.43129 52.957 8.58188 51.7486 10.8144C50.5401 13.0264 48.5739 15.6174 45.8498 18.5872C45.7884 19.6523 45.7576 20.7481 45.7576 21.8746C46.7408 19.3143 47.8673 17.4607 49.1371 16.3138C50.407 15.1463 51.595 14.5626 52.701 14.5626C53.7251 14.5626 54.5443 14.9108 55.1588 15.6071C55.7937 16.3035 56.1112 17.1638 56.1112 18.1878C56.1112 19.3143 55.8244 20.3487 55.251 21.2908C54.6775 22.233 53.6943 23.0728 52.3016 23.8101C52.3835 24.3631 52.6293 24.8137 53.0389 25.1619C53.469 25.4896 53.9811 25.6535 54.5751 25.6535C55.21 25.6535 55.8245 25.4077 56.4184 24.9161C57.0124 24.4246 57.7907 23.6053 58.7533 22.4583C58.9991 22.1716 59.2756 22.0282 59.5829 22.0282ZM49.7516 3.04155C49.3829 3.04155 48.9733 3.57408 48.5227 4.63913C48.0721 5.6837 47.6317 7.10719 47.2016 8.90959C46.792 10.6915 46.454 12.6373 46.1878 14.7469C47.4576 13.2517 48.5022 11.6234 49.3215 9.86199C50.1612 8.10056 50.5811 6.50298 50.5811 5.06925C50.5811 4.41383 50.5094 3.91203 50.366 3.56384C50.2227 3.21565 50.0179 3.04155 49.7516 3.04155Z" fill="#08C265"/>
<path d="M36.3822 29.033C34.375 29.033 32.8081 28.4697 31.6816 27.3432C30.5756 26.1962 30.0226 24.6908 30.0226 22.827C30.0226 21.1679 30.3503 19.7137 31.0057 18.4643C31.6611 17.215 32.5111 16.2523 33.5557 15.5764C34.6003 14.9005 35.696 14.5626 36.843 14.5626C37.9695 14.5626 38.84 14.9005 39.4545 15.5764C40.0894 16.2318 40.4069 17.0818 40.4069 18.1264C40.4069 18.9866 40.2123 19.7137 39.8231 20.3077C39.4545 20.9017 38.9629 21.1987 38.3484 21.1987C37.9593 21.1987 37.6418 21.1065 37.396 20.9222C37.1707 20.7378 37.0581 20.4818 37.0581 20.1541C37.0581 20.0107 37.0786 19.8469 37.1195 19.6625C37.1605 19.4782 37.1912 19.3451 37.2117 19.2631C37.3141 18.9559 37.3653 18.6692 37.3653 18.4029C37.3653 18.1366 37.2936 17.9318 37.1503 17.7884C37.0274 17.6451 36.843 17.5734 36.5972 17.5734C36.1262 17.5734 35.6858 17.7884 35.2762 18.2186C34.8665 18.6282 34.5388 19.1914 34.293 19.9083C34.0473 20.6252 33.9244 21.4137 33.9244 22.274C33.9244 24.6499 34.9587 25.8378 37.0274 25.8378C37.8671 25.8378 38.7683 25.5613 39.731 25.0083C40.7141 24.4348 41.6767 23.5848 42.6189 22.4583C42.8647 22.1716 43.1412 22.0282 43.4484 22.0282C43.7147 22.0282 43.9195 22.1511 44.0629 22.3969C44.2267 22.6426 44.3086 22.9806 44.3086 23.4107C44.3086 24.189 44.1141 24.8239 43.7249 25.3155C42.7623 26.5035 41.605 27.4251 40.2532 28.0806C38.9219 28.7155 37.6316 29.033 36.3822 29.033Z" fill="#08C265"/>
<path d="M26.9781 12.5349C26.1179 12.5349 25.4727 12.3403 25.0426 11.9511C24.6125 11.5415 24.3974 10.9782 24.3974 10.2614C24.3974 9.54452 24.6739 8.95055 25.2269 8.47946C25.8004 7.9879 26.507 7.74212 27.3468 7.74212C28.1046 7.74212 28.7191 7.92646 29.1902 8.29513C29.6612 8.6638 29.8968 9.18609 29.8968 9.86199C29.8968 10.6813 29.6305 11.3367 29.098 11.8282C28.5655 12.2993 27.8588 12.5349 26.9781 12.5349ZM26.7323 29.033C25.401 29.033 24.4281 28.5619 23.8137 27.6197C23.2197 26.6776 22.9227 25.4282 22.9227 23.8715C22.9227 22.9499 23.0354 21.7722 23.2607 20.3384C23.5065 18.8842 23.8137 17.5324 24.1824 16.283C24.3667 15.6276 24.6125 15.177 24.9197 14.9312C25.2269 14.6855 25.7185 14.5626 26.3944 14.5626C27.439 14.5626 27.9613 14.9108 27.9613 15.6071C27.9613 16.1192 27.7667 17.3071 27.3775 19.171C26.886 21.424 26.6402 22.9499 26.6402 23.7487C26.6402 24.3631 26.7221 24.8342 26.886 25.1619C27.0498 25.4896 27.3263 25.6535 27.7155 25.6535C28.0841 25.6535 28.545 25.3974 29.098 24.8854C29.651 24.3733 30.3883 23.5643 31.31 22.4583C31.5558 22.1716 31.8323 22.0282 32.1395 22.0282C32.4058 22.0282 32.6106 22.1511 32.754 22.3969C32.9179 22.6426 32.9998 22.9806 32.9998 23.4107C32.9998 24.23 32.8052 24.8649 32.416 25.3155C30.3883 27.7938 28.4938 29.033 26.7323 29.033Z" fill="#08C265"/>
<path d="M23.8715 10.5686C23.8715 12.3096 23.4209 13.9071 22.5197 15.3614C21.6185 16.8156 20.3077 18.0035 18.5872 18.9252C16.8668 19.8469 14.8186 20.3896 12.4427 20.5535L11.1216 27.9577C10.6096 30.8046 9.21681 32.2281 6.94333 32.2281C5.69394 32.2281 4.53672 31.8594 3.47167 31.1221C2.42709 30.3848 1.58734 29.2583 0.952404 27.7426C0.317468 26.227 0 24.3631 0 22.1511C0 17.9933 0.665659 14.4704 1.99698 11.5825C3.34878 8.67404 5.15117 6.50297 7.40417 5.06924C9.67765 3.61504 12.1764 2.88793 14.9005 2.88793C16.8258 2.88793 18.4541 3.22588 19.7854 3.90178C21.1372 4.57768 22.1511 5.49936 22.827 6.66682C23.5234 7.81381 23.8715 9.1144 23.8715 10.5686ZM12.9957 17.3891C17.1945 16.8565 19.2939 14.6752 19.2939 10.8451C19.2939 9.49331 18.8433 8.39754 17.9421 7.55778C17.0613 6.69755 15.6891 6.26743 13.8252 6.26743C11.7156 6.26743 9.87223 6.93309 8.29513 8.26441C6.73851 9.59572 5.53009 11.4493 4.66985 13.8252C3.8301 16.1806 3.41022 18.874 3.41022 21.9053C3.41022 23.1752 3.53311 24.3017 3.77889 25.2848C4.04516 26.2679 4.37287 27.036 4.76202 27.589C5.17166 28.1215 5.56081 28.3878 5.92948 28.3878C6.44153 28.3878 6.83068 27.6812 7.09695 26.2679L8.1108 20.4613C7.31201 20.3384 6.96381 20.2872 7.06622 20.3077C6.45177 20.2053 6.05237 20.021 5.86804 19.7547C5.6837 19.468 5.59153 19.1095 5.59153 18.6794C5.59153 18.2288 5.71442 17.8704 5.96021 17.6041C6.22647 17.3378 6.5849 17.2047 7.0355 17.2047C7.24032 17.2047 7.39393 17.215 7.49634 17.2354C7.9879 17.3174 8.36682 17.3686 8.63308 17.3891C8.89934 15.7915 9.27826 13.6511 9.76982 10.968C9.89271 10.2716 10.1692 9.78006 10.5993 9.49331C11.0499 9.18609 11.5722 9.03247 12.1662 9.03247C12.8421 9.03247 13.3234 9.16561 13.6102 9.43187C13.9174 9.67765 14.071 10.077 14.071 10.6301C14.071 10.9578 14.0505 11.224 14.0096 11.4288L12.9957 17.3891Z" fill="#08C265"/>
</svg>
